# xmcd CD database file
#
# Track frame offsets:
#	150
#	17400
#	36300
#	51195
#	75692
#	103317
#	125187
#	142102
#
# Disc length: 2170 seconds
#
# Revision: 2
# Processed by: cddbd v1.5.2PL0 Copyright (c) Steve Scherf et al.
# Submitted via: CDex 1.70beta2
#
DISCID=71087808
DTITLE=Banda Kadesh - Imagem
DYEAR=1900
DGENRE=Blues
TTITLE0=Tribo de Guerra
TTITLE1=Tudo Faz Sentido
TTITLE2=Blues 121
TTITLE3=Barquinho
TTITLE4=Imagem
TTITLE5=Babilônia Blues
TTITLE6=Pedra Viva
TTITLE7=Desenho
EXTD=
EXTT0=
EXTT1=
EXTT2=
EXTT3=
EXTT4=
EXTT5=
EXTT6=
EXTT7=
PLAYORDER=
